<svg width="84" height="84" viewBox="0 0 84 84" fill="none" xmlns="http://www.w3.org/2000/svg">
<path d="M19.6543 22.2941H9.1543V15.75H19.6543V22.2941Z" fill="#C0C0C0"/>
<path d="M60.3419 51.168C53.8279 51.168 48.5293 45.8694 48.5293 39.3554C48.5293 32.8416 53.8279 27.543 60.3419 27.543C66.8557 27.543 72.1543 32.8429 72.1543 39.3554C72.1543 45.868 66.8544 51.168 60.3419 51.168Z" fill="#C0C0C0"/>
<path d="M48.5293 18.3555H72.1543V23.6055H48.5293V18.3555Z" fill="#C0C0C0"/>
<path d="M29.7973 46.7737L27.5293 46.2067V46.2054L19.6543 44.2366L17.0293 43.5804V40.668H27.5293V14.418H1.2793V40.668H9.1543V48.8448C7.9376 47.8513 6.40593 47.2304 4.71543 47.2304C2.82149 47.2304 1.2793 48.7726 1.2793 50.6666C1.2793 51.1942 1.4053 51.7257 1.64286 52.2048L3.20999 55.343C3.6641 56.2486 3.90299 57.2632 3.90299 58.2764V64.1564C3.90299 66.2314 4.61699 68.2698 5.91636 69.896L8.84586 73.5553C7.33254 75.8836 6.52799 78.5756 6.52799 81.3541V82.6666H30.1529V81.3541C30.1529 78.5743 29.3498 75.8823 27.8365 73.554L30.7672 69.8934C32.0639 68.2684 32.7779 66.2314 32.7779 64.1551V50.5944C32.7806 48.7857 31.5548 47.2147 29.7973 46.7737ZM3.90561 38.0443V17.0443H24.9056V38.0443H17.0306V34.1067C17.0306 31.9359 15.2639 30.1693 13.0931 30.1693C10.9222 30.1693 9.15561 31.9359 9.15561 34.1067V38.0443H3.90561ZM9.2278 80.043C9.43517 78.1989 10.0783 76.431 11.1191 74.8704L11.1703 74.793H25.5146L25.5671 74.8717C26.6066 76.431 27.2485 78.1976 27.4558 80.043H9.2278ZM30.1556 64.1577C30.1556 65.6409 29.6451 67.0964 28.7198 68.2567L25.5881 72.168H11.0981L7.9678 68.258C7.04117 67.0951 6.5293 65.6396 6.5293 64.1577V58.2777C6.5293 56.859 6.1933 55.4374 5.55936 54.1696L3.99354 51.034C3.9358 50.9173 3.90561 50.7913 3.90561 50.6679C3.90561 50.2203 4.26917 49.8567 4.71673 49.8567C7.16323 49.8567 9.15561 51.8491 9.15561 54.297V56.4193V60.3567H11.7806V56.4193V54.297V34.1067C11.7806 33.3836 12.3686 32.7943 13.0931 32.7943C13.8176 32.7943 14.4056 33.3836 14.4056 34.1067V42.9254V60.3567H17.0306V46.288L19.6556 46.9443V60.3567H22.2806V47.6006L24.9056 48.2568V60.3567H27.5306V48.9117L29.1595 49.32C29.7461 49.467 30.1556 49.992 30.1556 50.5957V64.1577Z" fill="black"/>
<path d="M76.0919 1.29297H44.5919C40.9733 1.29297 38.0293 4.2369 38.0293 7.85547V65.6054C38.0293 69.224 40.9733 72.168 44.5919 72.168H76.0919C79.7103 72.168 82.6543 69.224 82.6543 65.6054V7.85547C82.6543 4.2369 79.709 1.29297 76.0919 1.29297ZM53.7793 3.91797H66.9043V5.23047C66.9043 5.95366 66.3163 6.54297 65.5919 6.54297H55.0919C54.3673 6.54297 53.7793 5.95366 53.7793 5.23047V3.91797ZM80.0293 65.6041C80.0293 67.775 78.2627 69.5417 76.0919 69.5417H44.5919C42.4209 69.5417 40.6543 67.775 40.6543 65.6041V7.85416C40.6543 5.68328 42.4209 3.91666 44.5919 3.91666H51.1543V5.22916C51.1543 7.40003 52.9209 9.16666 55.0919 9.16666H65.5919C67.7627 9.16666 69.5293 7.40003 69.5293 5.22916V3.91666H76.0919C78.2627 3.91666 80.0293 5.68328 80.0293 7.85416V65.6041Z" fill="black"/>
<path d="M64.2793 59.043H56.4043C54.9566 59.043 53.7793 60.2203 53.7793 61.668C53.7793 64.5633 56.1339 66.918 59.0293 66.918H61.6543C64.5497 66.918 66.9043 64.5633 66.9043 61.668C66.9043 60.2216 65.7257 59.043 64.2793 59.043ZM61.6543 64.293H59.0293C57.5816 64.293 56.4043 63.1156 56.4043 61.668H64.2793C64.2793 63.1156 63.1007 64.293 61.6543 64.293Z" fill="black"/>
<path d="M74.7793 11.793H45.9043C44.4566 11.793 43.2793 12.9703 43.2793 14.418V53.793C43.2793 55.2407 44.4566 56.418 45.9043 56.418H74.7793C76.227 56.418 77.4043 55.2407 77.4043 53.793V14.418C77.4043 12.9703 76.2257 11.793 74.7793 11.793ZM45.9043 53.7917V14.4167H74.7793L74.7819 53.7917H45.9043Z" fill="black"/>
<path d="M57.717 41.4392L56.02 39.7422L54.1641 41.598L57.717 45.1509L66.52 36.348L64.6641 34.4922L57.717 41.4392Z" fill="black"/>
<path d="M48.5293 17.043H72.1543V19.668H48.5293V17.043Z" fill="black"/>
<path d="M48.5293 22.293H72.1543V24.918H48.5293V22.293Z" fill="black"/>
</svg>
