<svg width="84" height="84" viewBox="0 0 84 84" fill="none" xmlns="http://www.w3.org/2000/svg">
<path d="M47.4019 55.46C57.8411 55.46 66.3037 46.9973 66.3037 36.5582C66.3037 26.1189 57.8411 17.6562 47.4019 17.6562C36.9626 17.6562 28.5 26.1189 28.5 36.5582C28.5 46.9973 36.9626 55.46 47.4019 55.46Z" fill="#C0C0C0"/>
<path d="M75.4444 5.50451C65.9666 5.50451 56.7006 3.71959 47.9032 0.201331L47.4009 0L46.9 0.201043C38.1012 3.71959 28.8351 5.50422 19.3572 5.50422H16.3476V33.8572H9.59713C7.36405 33.8572 5.54688 35.6743 5.54688 37.9074V60.8598C5.54688 63.0929 7.36405 64.9104 9.59713 64.9104H21.7481C21.7508 64.9104 21.7522 64.9104 21.7548 64.9104C24.9438 69.9773 29.3627 74.1626 34.6311 77.0346L47.4005 84L60.17 77.0346C71.4489 70.8835 78.4535 59.0818 78.4535 46.2354V5.50451H75.4444ZM8.24685 60.8598V37.9074C8.24685 37.1634 8.85171 36.5574 9.59684 36.5574H21.7479C22.493 36.5574 23.0979 37.1638 23.0979 37.9074V60.8598C23.0979 61.6038 22.493 62.21 21.7479 62.21H9.59713C8.85171 62.21 8.24685 61.6038 8.24685 60.8598ZM25.7987 40.5959C30.3069 40.3516 33.8996 36.6061 33.8996 32.0388V25.0816C33.8996 23.2211 35.4131 21.7061 37.2749 21.7061C39.1367 21.7061 40.6503 23.2208 40.6503 25.0816V33.5792C40.6503 35.966 42.5919 37.9076 44.9788 37.9076H54.8766C57.4539 37.9076 59.5522 40.0045 59.5522 42.5832V57.5345C59.5522 60.1133 57.4541 62.21 54.8766 62.21H34.9836C33.9116 62.21 32.918 61.6766 32.3225 60.7858C31.2263 59.1414 29.3913 58.1598 27.4149 58.1598H25.7987V40.5959ZM75.7535 46.2352C75.7535 58.0921 69.2878 68.9862 58.8782 74.6635L47.4009 80.9242L35.9235 74.6635C31.2263 72.1009 27.257 68.411 24.3381 63.9475C25.1576 63.2588 25.6965 62.26 25.772 61.1256C28.4964 65.8254 32.42 69.6761 37.2171 72.2926L47.4011 77.8483L57.5853 72.2926C67.1267 67.089 73.0538 57.1048 73.0538 46.2364V25.7563H70.3535V46.2366C70.3535 56.1154 64.9665 65.1926 56.2931 69.9221L47.4011 74.7719L38.5091 69.9221C34.7045 67.8468 31.5086 64.9144 29.1068 61.3662C29.4834 61.6024 29.821 61.9021 30.0762 62.2844C31.1724 63.9288 33.0075 64.9104 34.9839 64.9104H54.8769C58.9448 64.9104 62.2527 61.6012 62.2527 57.5345V42.5832C62.2527 38.5166 58.945 35.2074 54.8769 35.2074H44.979C44.0813 35.2074 43.3509 34.477 43.3509 33.5792V25.0816C43.3509 21.7318 40.625 19.0058 37.2752 19.0058C33.9255 19.0058 31.1996 21.7318 31.1996 25.0816V32.0374C31.1996 35.1158 28.8112 37.6188 25.7936 37.8605C25.78 36.6874 25.2602 35.642 24.4487 34.9105V13.4501C32.2902 12.9682 40.0037 11.3656 47.4009 8.67858C54.7983 11.3653 62.5102 12.9679 70.3529 13.4501V14.9556H73.0532V10.8808L71.7652 10.8215C63.5915 10.4477 55.5515 8.81654 47.8691 5.97457L47.4005 5.80032L46.9319 5.97313C39.2482 8.8151 31.2082 10.4462 23.036 10.8201L21.7479 10.8808V33.8574H19.0476V8.20477H19.3566C29.0007 8.20477 38.4314 6.42246 47.4003 2.90678C56.3692 6.42246 65.7998 8.20477 75.4438 8.20477H75.7529L75.7535 46.2352Z" fill="#333333"/>
<path d="M73.0539 20.3555H70.3535V23.0558H73.0539V20.3555Z" fill="#333333"/>
<path d="M20.398 56.8086H10.9473V59.5088H20.398V56.8086Z" fill="#333333"/>
</svg>
