<svg width="84" height="84" viewBox="0 0 84 84" fill="none" xmlns="http://www.w3.org/2000/svg">
<g clip-path="url(#clip0_3878_3691)">
<mask id="mask0_3878_3691" style="mask-type:luminance" maskUnits="userSpaceOnUse" x="0" y="0" width="84" height="84">
<path d="M84 0H0V84H84V0Z" fill="white"/>
</mask>
<g mask="url(#mask0_3878_3691)">
<path d="M66.3887 44.7109H69.0984V47.4206H66.3887V44.7109Z" fill="black"/>
<path d="M21.6777 47.418H24.3874V50.1277H21.6777V47.418Z" fill="black"/>
<path d="M61.7066 19.5742L60.1891 21.8195C62.509 23.3874 64.5803 25.2284 66.3863 27.2766V32.7555C66.3863 35.7999 64.1074 38.3813 61.086 38.759C57.9292 39.152 55.5476 41.8498 55.5476 45.0317C55.5476 46.9641 56.4135 48.7635 57.9212 49.9702L59.2298 51.016C61.0676 52.486 61.9698 54.8437 61.5822 57.1658C61.2693 59.0492 60.1487 60.6924 58.512 61.6747C55.8957 63.2453 53.7919 65.517 52.4258 68.2472L50.4644 72.1696C49.3589 74.3817 48.7734 76.8598 48.7734 79.3341V80.5764C46.5871 81.0421 44.3226 81.2915 41.9993 81.2915C37.1872 81.2915 32.6198 80.2317 28.5051 78.3476C32.7118 75.4388 35.2251 70.683 35.2251 65.5547C35.2251 63.0773 33.9946 60.7778 31.9312 59.4031L31.5158 59.1266C29.3664 57.6943 28.7843 54.7802 30.2179 52.6328C31.7811 50.2877 31.8829 47.3107 30.4844 44.8637L28.4687 41.3344C27.2707 39.2386 25.0287 37.9366 22.614 37.9366C19.8409 37.9366 17.3832 39.6018 16.3532 42.1758C15.7386 43.7165 14.2688 44.7108 12.6102 44.7108H9.73913C10.8988 35.4751 15.9755 27.1171 23.8108 21.8195L22.2933 19.5742C12.5752 26.144 6.77344 37.0615 6.77344 48.7754C6.77344 68.1983 22.5764 84.0012 41.9993 84.0012C61.4222 84.0012 77.2251 68.1983 77.2251 48.7754C77.2251 37.0615 71.4233 26.144 61.7066 19.5742ZM9.48311 48.7754C9.48311 48.3215 9.50627 47.8717 9.52479 47.4205H12.6102C15.3835 47.4205 17.841 45.7555 18.8711 43.1814C19.4856 41.6406 20.9556 40.6463 22.614 40.6463C24.0569 40.6463 25.3999 41.4257 26.115 42.6786L28.1313 46.208C29.0171 47.7579 28.9523 49.644 27.962 51.1298C25.7009 54.5216 26.6204 59.1213 30.0128 61.3824L30.4288 61.6582C31.736 62.5282 32.5154 63.9863 32.5154 65.5547C32.5154 69.8647 30.3747 73.8644 26.7884 76.2545L25.7696 76.9333C16.0462 71.3076 9.48311 60.7969 9.48311 48.7754ZM51.4832 79.8771V79.3341C51.4832 77.2773 51.968 75.2192 52.8882 73.3808L54.8497 69.4585C55.9836 67.19 57.7327 65.302 59.9058 63.9968C62.2259 62.6056 63.811 60.2782 64.2535 57.6103C64.8026 54.3204 63.5251 50.9822 60.9207 48.8997L59.6121 47.8538C58.7521 47.1658 58.2573 46.1359 58.2573 45.0317C58.2573 43.2138 59.6174 41.6717 61.4222 41.4468C65.7969 40.8997 69.096 37.1633 69.096 32.7541V30.8224C72.5751 36.0724 74.5154 42.287 74.5154 48.7754C74.5154 63.4061 64.7999 75.8086 51.4832 79.8771Z" fill="black"/>
<path d="M16.2598 60.9688H18.9695V63.6784H16.2598V60.9688Z" fill="black"/>
<path d="M58.2598 69.0977H60.9695V71.8074H58.2598V69.0977Z" fill="black"/>
<path d="M25.7422 67.7422H28.4519V70.4519H25.7422V67.7422Z" fill="black"/>
<path d="M42.0003 54.1936C40.6904 54.1936 39.4845 53.5392 38.7706 52.4405L24.9344 31.156C22.8036 27.8774 21.6777 24.0768 21.6777 20.1652C21.6777 9.04593 30.7237 0 41.8428 0H42.1578C53.277 0 62.3228 9.04593 62.3228 20.1652C62.3228 24.0768 61.1969 27.8774 59.0661 31.156L45.2299 52.4405C44.5161 53.5392 43.3101 54.1936 42.0003 54.1936Z" fill="#C0C0C0"/>
<path d="M42.0022 32.5159C35.2795 32.5159 29.8086 27.045 29.8086 20.3225C29.8086 13.5999 35.2795 8.12891 42.0022 8.12891C48.7247 8.12891 54.1958 13.5999 54.1958 20.3225C54.1958 27.045 48.7247 32.5159 42.0022 32.5159ZM42.0022 10.8386C36.7726 10.8386 32.5183 15.0929 32.5183 20.3225C32.5183 25.5519 36.7726 29.8064 42.0022 29.8064C47.2316 29.8064 51.4861 25.5519 51.4861 20.3225C51.4861 15.0929 47.2316 10.8386 42.0022 10.8386Z" fill="black"/>
</g>
</g>
<defs>
<clipPath id="clip0_3878_3691">
<rect width="84" height="84" fill="white"/>
</clipPath>
</defs>
</svg>
